<svg width="39" height="39" viewBox="0 0 39 39" fill="none" xmlns="http://www.w3.org/2000/svg">
<path d="M19.03 38.06C8.52 38.06 0 29.54 0 19.03C0 8.52 8.52 0 19.03 0C29.54 0 38.06 8.52 38.06 19.03C38.07 29.54 29.55 38.06 19.03 38.06Z" fill="#333333"/>
<path d="M16.1901 25.3399C16.7701 25.2199 17.2701 24.9999 17.7001 24.6699C18.0801 24.3899 18.3901 24.0399 18.6401 23.6199C19.0401 22.9899 19.2301 22.2799 19.2301 21.4899C19.2301 20.7299 19.0601 20.0699 18.7101 19.5399C18.3601 18.9999 17.8501 18.6099 17.1701 18.3599C17.6201 18.1299 17.9601 17.8799 18.1901 17.5999C18.6001 17.1099 18.8101 16.4499 18.8101 15.6399C18.8101 14.8499 18.6101 14.1699 18.2001 13.6099C17.5201 12.6899 16.3701 12.2199 14.7501 12.1899H8.31006V25.5199H14.3101C14.9901 25.5199 15.6201 25.4599 16.1901 25.3399ZM10.9601 14.5099H13.8601C14.5001 14.5099 15.0201 14.5799 15.4301 14.7199C15.9101 14.9199 16.1501 15.3299 16.1501 15.9499C16.1501 16.5099 15.9701 16.8999 15.6101 17.1199C15.2501 17.3399 14.7801 17.4499 14.2001 17.4499H10.9601V14.5099ZM10.9601 23.2099V19.6599H14.2401C14.8101 19.6699 15.2601 19.7399 15.5701 19.8899C16.1401 20.1499 16.4201 20.6199 16.4201 21.3199C16.4201 22.1399 16.1301 22.6899 15.5401 22.9799C15.2201 23.1399 14.7701 23.2099 14.1901 23.2099H10.9601Z" fill="white"/>
<path d="M21.4902 24.6399C22.4902 25.4499 23.6501 25.8499 24.9601 25.8499C26.5501 25.8499 27.7901 25.3699 28.6701 24.4099C29.2401 23.8099 29.5602 23.2099 29.6302 22.6299H27.0001C26.8501 22.9199 26.6701 23.1399 26.4701 23.3099C26.1001 23.6099 25.6301 23.7599 25.0401 23.7599C24.4901 23.7599 24.0101 23.6399 23.6201 23.3899C22.9701 22.9899 22.6301 22.2999 22.5901 21.3099H29.7702C29.7802 20.4599 29.7501 19.8099 29.6901 19.3499C29.5701 18.5799 29.3101 17.8999 28.9001 17.3099C28.4501 16.6499 27.8801 16.1599 27.2001 15.8499C26.5101 15.5399 25.7402 15.3899 24.8802 15.3899C23.4402 15.3899 22.2601 15.8499 21.3601 16.7599C20.4601 17.6699 20.0001 18.9799 20.0001 20.6899C19.9901 22.5199 20.4902 23.8299 21.4902 24.6399ZM23.3301 18.0899C23.6901 17.7199 24.2101 17.5299 24.8701 17.5299C25.4801 17.5299 25.9901 17.7099 26.4001 18.0599C26.8101 18.4099 27.0401 18.9299 27.0901 19.6199H22.6501C22.7401 18.9799 22.9701 18.4699 23.3301 18.0899Z" fill="white"/>
<path d="M27.6001 12.96H21.8101V14.3H27.6001V12.96Z" fill="white"/>
</svg>
