<svg width="39" height="39" viewBox="0 0 39 39" fill="none" xmlns="http://www.w3.org/2000/svg">
<path d="M19.03 38.06C8.52 38.06 0 29.54 0 19.03C0 8.52 8.52 0 19.03 0C29.54 0 38.06 8.52 38.06 19.03C38.07 29.54 29.55 38.06 19.03 38.06Z" fill="#333333"/>
<path d="M24.0066 30.2746C24.0066 30.2746 22.9757 29.8135 22.9757 29.0046C22.9987 28.1129 22.9757 26.0339 22.9757 25.2684C22.9551 24.45 22.6458 23.6616 22.0966 23.0285C22.0966 23.0285 29 23.1023 29 16.1563C29 13.4771 27.5181 12.081 27.5181 12.081C27.5181 12.081 28.3005 9.22342 27.2511 8.00994C26.0776 7.88816 23.9698 9.06684 23.0724 9.61922C21.8575 9.22485 20.5781 9.03781 19.2939 9.06684C18.0051 9.03655 16.7209 9.22359 15.5016 9.61922C14.5812 9.06684 12.501 7.87946 11.3228 8.00994C10.2781 9.22342 11.0559 12.081 11.0559 12.081C11.0559 12.081 9.57396 13.4771 9.57396 16.1563C9.57396 23.1154 16.4773 23.0285 16.4773 23.0285C16.0182 23.5531 15.719 24.1862 15.6121 24.8595C15.0471 25.0551 14.4547 25.1709 13.854 25.2031C12.3583 25.2031 11.2216 23.8287 10.8074 23.1937C10.5872 22.8641 10.2878 22.5883 9.93351 22.3888C9.57923 22.1892 9.18008 22.0716 8.76857 22.0455C8.24852 22.0455 8 22.289 8 22.5674C8 22.8458 8.72255 23.0415 9.20119 23.5591C10.1999 24.6508 10.1815 27.0907 13.7712 27.0907C14.3691 27.0635 14.9652 27.0069 15.5569 26.9212C15.5569 27.6954 15.5569 28.5131 15.5569 28.9871C15.5799 29.8005 14.5536 30.2528 14.5536 30.2528C17.6165 31.2415 20.9387 31.2492 24.0066 30.2746Z" fill="white"/>
</svg>
