<svg width="39" height="39" viewBox="0 0 39 39" fill="none" xmlns="http://www.w3.org/2000/svg">
<path d="M19.03 38.06C8.52 38.06 0 29.54 0 19.03C0 8.52 8.52 0 19.03 0C29.54 0 38.06 8.52 38.06 19.03C38.06 29.54 29.54 38.06 19.03 38.06Z" fill="#333333"/>
<path d="M19.0301 10.4801C21.8201 10.4801 22.1501 10.4901 23.2501 10.5401C24.2701 10.5901 24.8201 10.7601 25.1901 10.9001C25.6801 11.0901 26.0201 11.3201 26.3901 11.6801C26.7601 12.0501 26.9801 12.3901 27.1701 12.8801C27.3101 13.2501 27.4801 13.8001 27.5301 14.8201C27.5801 15.9201 27.5901 16.2501 27.5901 19.0401C27.5901 21.8301 27.5801 22.1601 27.5301 23.2601C27.4801 24.2801 27.3101 24.8301 27.1701 25.2001C26.9801 25.6901 26.7501 26.0301 26.3901 26.4001C26.0301 26.7601 25.6801 26.9901 25.1901 27.1801C24.8201 27.3201 24.2701 27.4901 23.2501 27.5401C22.1501 27.5901 21.8201 27.6001 19.0301 27.6001C16.2401 27.6001 15.9101 27.5901 14.8101 27.5401C13.7901 27.4901 13.2401 27.3201 12.8701 27.1801C12.3801 26.9901 12.0401 26.7601 11.6701 26.4001C11.3001 26.0301 11.0801 25.6901 10.8901 25.2001C10.7501 24.8301 10.5801 24.2801 10.5301 23.2601C10.4801 22.1601 10.4701 21.8301 10.4701 19.0401C10.4701 16.2501 10.4801 15.9201 10.5301 14.8201C10.5801 13.8001 10.7501 13.2501 10.8901 12.8801C11.0801 12.3901 11.3101 12.0501 11.6701 11.6801C12.0401 11.3101 12.3801 11.0901 12.8701 10.9001C13.2401 10.7601 13.7901 10.5901 14.8101 10.5401C15.9101 10.4901 16.2401 10.4801 19.0301 10.4801ZM19.0301 8.6001C16.2001 8.6001 15.8401 8.6101 14.7301 8.6601C13.6201 8.7101 12.8601 8.8901 12.2001 9.1501C11.5101 9.4201 10.9301 9.7701 10.3501 10.3501C9.7701 10.9301 9.4101 11.5101 9.1501 12.2001C8.8901 12.8601 8.7201 13.6201 8.6601 14.7301C8.6101 15.8401 8.6001 16.2001 8.6001 19.0301C8.6001 21.8601 8.6101 22.2201 8.6601 23.3301C8.7101 24.4401 8.8901 25.2001 9.1501 25.8601C9.4201 26.5501 9.7701 27.1301 10.3501 27.7101C10.9301 28.2901 11.5101 28.6501 12.2001 28.9101C12.8601 29.1701 13.6201 29.3401 14.7301 29.4001C15.8401 29.4501 16.2001 29.4601 19.0301 29.4601C21.8601 29.4601 22.2201 29.4501 23.3301 29.4001C24.4401 29.3501 25.2001 29.1701 25.8601 28.9101C26.5501 28.6401 27.1301 28.2901 27.7101 27.7101C28.2901 27.1301 28.6501 26.5501 28.9101 25.8601C29.1701 25.2001 29.3401 24.4401 29.4001 23.3301C29.4501 22.2201 29.4601 21.8601 29.4601 19.0301C29.4601 16.2001 29.4501 15.8401 29.4001 14.7301C29.3501 13.6201 29.1701 12.8601 28.9101 12.2001C28.6401 11.5101 28.2901 10.9301 27.7101 10.3501C27.1301 9.7701 26.5501 9.4101 25.8601 9.1501C25.2001 8.8901 24.4401 8.7201 23.3301 8.6601C22.2201 8.6101 21.8601 8.6001 19.0301 8.6001Z" fill="white"/>
<path d="M19.0299 13.6702C16.0699 13.6702 13.6699 16.0702 13.6699 19.0302C13.6699 21.9902 16.0699 24.3902 19.0299 24.3902C21.9899 24.3902 24.3899 21.9902 24.3899 19.0302C24.3899 16.0702 21.9899 13.6702 19.0299 13.6702ZM19.0299 22.5102C17.1099 22.5102 15.5499 20.9502 15.5499 19.0302C15.5499 17.1102 17.1099 15.5502 19.0299 15.5502C20.9499 15.5502 22.5099 17.1102 22.5099 19.0302C22.5099 20.9502 20.9499 22.5102 19.0299 22.5102Z" fill="white"/>
<path d="M25.8501 13.4602C25.8501 14.1502 25.2901 14.7102 24.6001 14.7102C23.9101 14.7102 23.3501 14.1502 23.3501 13.4602C23.3501 12.7702 23.9101 12.2102 24.6001 12.2102C25.2901 12.2102 25.8501 12.7702 25.8501 13.4602Z" fill="white"/>
</svg>
