<svg width="39" height="39" viewBox="0 0 39 39" fill="none" xmlns="http://www.w3.org/2000/svg">
<path d="M19.03 38.06C8.52 38.06 0 29.54 0 19.03C0 8.52 8.52 0 19.03 0C29.54 0 38.06 8.52 38.06 19.03C38.06 29.54 29.54 38.06 19.03 38.06Z" fill="#333333"/>
<path d="M14.3399 14.78H10.3999V27.5H14.3399V14.78Z" fill="white"/>
<path d="M12.35 13.1199C13.64 13.1199 14.68 12.0699 14.68 10.7699C14.68 9.46992 13.64 8.41992 12.35 8.41992C11.06 8.41992 10.02 9.46992 10.02 10.7699C10.02 12.0699 11.06 13.1199 12.35 13.1199Z" fill="white"/>
<path d="M20.6399 20.8299C20.6399 19.0399 21.4599 17.9799 23.0399 17.9799C24.4899 17.9799 25.1799 18.9999 25.1799 20.8299C25.1799 22.6599 25.1799 27.5099 25.1799 27.5099H29.0999C29.0999 27.5099 29.0999 22.8599 29.0999 19.4499C29.0999 16.0399 27.1699 14.3899 24.4699 14.3899C21.7699 14.3899 20.6399 16.4899 20.6399 16.4899V14.7799H16.8599V27.4999H20.6399C20.6399 27.5099 20.6399 22.7899 20.6399 20.8299Z" fill="white"/>
</svg>
