<svg width="39" height="39" viewBox="0 0 39 39" fill="none" xmlns="http://www.w3.org/2000/svg">
<path d="M19.03 38.06C8.52 38.06 0 29.54 0 19.03C0 8.52 8.52 0 19.03 0C29.54 0 38.06 8.52 38.06 19.03C38.06 29.54 29.54 38.06 19.03 38.06Z" fill="#333333"/>
<path d="M14.42 20.4C14.62 26.39 16.82 30.48 18.8 30.48C20.78 30.48 22.98 26.38 23.18 20.4H14.42Z" fill="white"/>
<path d="M18.81 8.56C16.83 8.56 14.63 12.66 14.43 18.64H23.2C22.99 12.66 20.79 8.56 18.81 8.56Z" fill="white"/>
<path d="M24.95 18.65H30.61C30.23 13.43 26.46 9.15 21.49 8C23.46 9.87 24.8 13.81 24.95 18.65Z" fill="white"/>
<path d="M24.95 20.4C24.8 25.24 23.47 29.18 21.5 31.05C26.47 29.9 30.23 25.62 30.62 20.4H24.95Z" fill="white"/>
<path d="M12.67 20.4H7.01001C7.39001 25.62 11.16 29.9 16.13 31.05C14.15 29.18 12.81 25.24 12.67 20.4Z" fill="white"/>
<path d="M12.67 18.65C12.82 13.81 14.15 9.87 16.12 8C11.15 9.15 7.39 13.43 7 18.65H12.67Z" fill="white"/>
</svg>
